<?xml version="1.0" encoding="UTF-8" standalone="no"?>
<!-- Created with Inkscape (http://www.inkscape.org/) -->

<svg
   width="465.78287mm"
   height="518.26666mm"
   viewBox="0 0 465.78287 518.26666"
   version="1.1"
   id="svg5"
   xml:space="preserve"
   xmlns="http://www.w3.org/2000/svg"
   xmlns:svg="http://www.w3.org/2000/svg"><defs
     id="defs2" /><g
     id="layer1"
     transform="translate(16400.34,2509.3829)"><path
       style="fill:#000000;stroke-width:1"
       d="m -16154.646,-1991.5155 c 4.352,-10.0286 4.732,-16.4129 1.404,-23.5792 -1.849,-3.9788 -7.672,-10.1362 -13.885,-14.6811 -16.623,-12.1578 -22.573,-17.5899 -26.138,-23.8586 -0.974,-1.7141 -1.914,-3.1236 -2.089,-3.1318 -0.452,-0.022 -1.47,7.0122 -1.791,12.3891 -0.752,12.5473 5.501,26.6249 16.876,38.001 3.754,3.7535 3.86,3.7239 -4.135,1.1399 -12.315,-3.9797 -23.488,-13.0169 -28.58,-23.115 -0.61,-1.2104 -1.204,-2.1058 -1.32,-1.9896 -0.115,0.1162 -0.58,2.1317 -1.029,4.4792 -1.115,5.8121 -0.762,16.6069 0.689,21.1023 0.562,1.7405 0.909,3.1643 0.773,3.1643 -1.382,0 -8.852,-7.0621 -11.351,-10.7312 -4.492,-6.5926 -8.04,-16.3431 -8.04,-22.0911 0,-2.8415 -0.499,-2.3568 -1.994,1.9382 -3.347,9.6067 -10.951,17.8793 -19.998,21.7571 -2.217,0.9505 -2.391,0.963 -2.041,0.1465 3.473,-8.1215 4.156,-18.3076 1.717,-25.5737 -1.885,-5.6144 -4.837,-9.9686 -12.613,-18.6069 -8.573,-9.5262 -13.762,-16.8304 -18.878,-26.5807 l -3.453,-6.5818 0.319,5.8225 c 0.618,11.3368 -1.095,33.4403 -3.379,43.5415 l -0.628,2.7845 -0.464,-2.2783 c -4.089,-20.1092 -8.281,-29.7903 -20.608,-47.5919 -7.296,-10.5372 -10.135,-15.1429 -14.512,-23.5427 -2.031,-3.8985 -3.699,-6.8304 -3.704,-6.5154 -0.01,0.8147 4.228,18.9618 7.058,30.1847 1.317,5.2211 2.332,9.4931 2.257,9.4931 -0.07,0 -1.659,-1.9709 -3.519,-4.3797 -12.191,-15.7954 -21.358,-32.2774 -26.652,-47.9271 -1.15,-3.3939 -2.264,-6.3673 -2.476,-6.6075 -0.212,-0.2404 -0.281,1.4683 -0.153,3.7972 0.383,6.9543 1.186,17.7623 1.482,19.9295 l 0.277,2.0252 -0.864,-1.509 c -0.476,-0.8298 -1.96,-4.0614 -3.299,-7.1811 -11.848,-27.6125 -15.596,-60.6776 -10.163,-89.6582 1.465,-7.8193 0.184,-6.6498 -3.43,3.1303 -1.036,2.8035 -2.401,7.2046 -3.034,9.7803 -0.631,2.5758 -1.323,4.6832 -1.534,4.6832 -0.211,0 -0.787,-3.5193 -1.279,-7.8207 -1.868,-16.3258 -0.146,-39.0615 3.98,-52.5551 0.405,-1.3228 0.629,-2.4049 0.498,-2.4049 -0.129,0 -1.583,1.1847 -3.229,2.6328 -1.645,1.4481 -4.963,3.95 -7.373,5.5597 -4.386,2.9292 -15.389,8.8279 -15.389,8.2499 0,-1.0994 6.355,-11.7397 12.391,-20.7461 13.08,-19.5155 16.021,-27.8334 15.189,-42.9683 -0.224,-4.0691 -0.527,-6.255 -0.805,-5.8224 -0.906,1.4037 -4.448,13.0187 -5.694,18.6661 -0.706,3.2023 -1.556,7.873 -1.887,10.3791 -0.332,2.5062 -0.754,4.728 -0.939,4.9375 -0.523,0.5956 -4.051,-9.4265 -5.39,-15.3166 -6.335,-27.8569 2.282,-59.6823 22.002,-81.2602 6.147,-6.7252 15.411,-14.3187 21.095,-17.2881 2.889,-1.5098 3.451,-2.2044 1.782,-2.2044 -0.542,0 -2.877,-0.5941 -5.189,-1.3189 -13.62,-4.2711 -24.067,-13.7576 -28.804,-26.1589 -1.246,-3.2621 -1.019,-4.1032 0.68,-2.5216 1.744,1.6232 8.416,5.0576 12.586,6.4784 2.057,0.7003 5.806,1.5356 8.329,1.8557 7.945,1.0074 13.919,-0.6143 21.704,-5.8914 6.764,-4.584 13.041,-8.0585 18.904,-10.4596 2.86,-1.1711 5.132,-2.1987 5.049,-2.2819 -0.09,-0.086 -1.879,-0.508 -3.989,-0.9429 -8.065,-1.6662 -15.166,-4.7275 -20.942,-9.0287 l -3.544,-2.6393 7.847,-0.3229 c 7.183,-0.2956 17.3,-1.6676 21.822,-2.9593 1.444,-0.4119 2.023,-0.9644 2.784,-2.6536 0.53,-1.174 2.149,-3.9066 3.598,-6.0722 1.451,-2.1672 2.529,-3.9396 2.397,-3.9396 -0.599,0 -11.061,5.4436 -15.308,7.9638 -2.587,1.537 -4.8,2.6967 -4.918,2.5804 -0.433,-0.4334 6.711,-9.4291 11.133,-14.0173 8.89,-9.2239 19.248,-16.4385 34.059,-23.7234 5.36,-2.6379 9.746,-4.8853 9.746,-4.9944 0,-0.1148 -1.772,-1.0922 -3.938,-2.1815 -3.967,-1.9934 -12.575,-8.014 -12.117,-8.4732 0.144,-0.1292 1.583,0.1004 3.215,0.5209 7.466,1.9332 15.411,2.447 30.813,1.9963 23.993,-0.7003 35.139,-0.1004 48.605,2.6293 6.902,1.3964 16.394,4.2395 19.619,5.8727 2.295,1.1639 2.376,0.8611 0.383,-1.4093 -4.208,-4.7921 -4.875,-9.409 -2.16,-14.9273 0.894,-1.8155 2.029,-3.6654 2.523,-4.1132 0.855,-0.7735 0.9,-0.5826 0.9,3.8707 0,4.2826 0.115,4.8681 1.416,6.8271 1.734,2.6178 5.181,4.881 8.531,5.6001 1.378,0.2956 7.565,0.5396 13.746,0.5439 11.873,0 14.527,0.3645 18.729,2.5302 2.924,1.5055 4.751,3.3124 6.549,6.4698 l 1.524,2.6766 1.332,-0.8698 c 0.733,-0.4793 2.43,-1.7351 3.769,-2.7928 7.88,-6.2172 23.765,-14.1766 26.784,-13.4189 0.639,0.1608 2.697,1.5586 4.573,3.1057 12.25,10.1051 25.819,14.9445 41.898,14.9445 5.978,0 13.306,-0.907 18.227,-2.2561 1.533,-0.4205 3.121,-0.7664 3.53,-0.7707 0.905,-0.014 -5.099,6.1598 -9.479,9.7377 -1.739,1.4222 -3.164,2.7454 -3.164,2.9421 0,0.198 1.083,0.6271 2.405,0.9558 3.482,0.864 11.989,5.0331 16.628,8.1475 6.184,4.1505 10.512,7.8819 17.687,15.2415 5.821,5.9718 13.869,15.84 13.343,16.3581 -0.101,0.1005 -2.015,-0.9415 -4.243,-2.3221 -9.667,-5.9919 -21.674,-10.9647 -31.674,-13.1189 -6.187,-1.3319 -18.273,-1.6002 -23.765,-0.5296 -9.185,1.7925 -20.031,6.4224 -27.571,11.7699 -4.495,3.186 -14.452,12.529 -14.452,13.5595 0,0.2956 1.851,-0.8367 4.114,-2.5145 11.288,-8.3699 24.189,-13.5437 38.335,-15.375 7.716,-0.9988 12.588,-1.0189 18.813,-0.072 8.206,1.2457 13.278,3.0239 24.555,8.6038 5.849,2.8948 12.033,5.6216 13.744,6.0622 4.078,1.0477 10.194,0.9687 14.61,-0.1894 1.949,-0.511 3.619,-0.8583 3.712,-0.7707 0.277,0.2583 -5.196,4.4088 -8.27,6.2717 -1.569,0.9501 -4.033,2.1197 -5.476,2.6005 l -2.625,0.8726 3.27,1.5643 c 10.792,5.1681 23.229,3.6726 34.9,-4.1935 1.501,-1.0118 2.825,-1.7438 2.942,-1.6261 0.404,0.4033 -2.46,8.1762 -4.017,10.9016 -2.145,3.7544 -7.422,9.2195 -11.553,11.965 -3.71,2.4671 -8.796,4.7418 -13.021,5.8254 -1.457,0.3731 -2.648,0.8166 -2.648,0.9845 0,0.1679 1.993,1.7653 4.43,3.5492 5.562,4.0701 14.661,13.2122 18.485,18.574 5.796,8.1231 10.113,17.7186 12.145,26.9956 0.832,3.8012 1.058,6.6159 1.068,13.4173 0.01,9.6749 -0.995,15.7121 -4.406,26.3274 -2.782,8.6515 -3.939,13.7867 -4.016,17.8153 -0.04,2.0363 -0.217,3.7024 -0.395,3.7024 -0.178,0 -1.616,-1.3556 -3.196,-3.0122 -3.004,-3.1496 -5.166,-7.0503 -5.705,-10.2893 -0.423,-2.551 -1.069,-2.8283 -1.479,-0.6358 -0.65,3.4618 0.905,8.8489 3.886,13.4608 1.114,1.7223 5.376,6.5782 9.474,10.7908 7.829,8.05 10.026,10.7553 12.977,15.9762 1.357,2.4012 1.581,3.0951 0.911,2.8166 -0.49,-0.2032 -4.194,-1.601 -8.232,-3.1065 -17.385,-6.4817 -20.486,-8.0054 -27.593,-13.5614 -1.949,-1.5237 -3.608,-2.5912 -3.685,-2.3722 -0.07,0.219 1.354,2.771 3.181,5.6712 17.433,27.6711 22.042,56.6948 13.634,85.8665 -2.949,10.2333 -8.105,21.3577 -15.488,33.4189 -3.387,5.5326 -3.66,6.201 -4.501,11.0487 -2.808,16.179 -9.34,33.8768 -17.658,47.8395 -6.081,10.2081 -14.768,21.3727 -21.866,28.0995 -4.146,3.9283 -14.566,12.4042 -15.249,12.4042 -0.241,0 0.245,-0.8544 1.079,-1.8986 2.586,-3.2396 10.064,-15.7433 13.718,-22.9414 3.714,-7.3169 9.248,-20.5854 8.954,-21.4641 -0.101,-0.2907 -1.071,0.9298 -2.16,2.7119 -8.814,14.4138 -21.522,27.2594 -37.807,38.2152 -5.162,3.4728 -18.321,10.9463 -19.274,10.9463 -0.151,0 0.92,-1.1962 2.378,-2.6581 4.39,-4.4001 15.003,-18.1626 15.003,-19.4556 0,-0.2191 -2.392,1.9857 -5.317,4.8995 -5.734,5.7149 -5.662,5.7159 -4.765,-0.069 0.304,-1.9546 0.432,-3.6737 0.286,-3.82 -0.147,-0.1464 -1.177,1.5458 -2.291,3.7605 -2.791,5.5501 -11.883,20.6931 -26.752,44.556 -4.457,7.1523 -5.818,9.0236 -4.985,6.8552 0.182,-0.476 0.798,-4.2923 1.369,-8.4804 0.806,-5.9299 0.981,-9.2953 0.791,-15.2092 -0.28,-8.6971 -1.183,-12.5882 -4.379,-18.8925 -3.422,-6.7483 -3.386,-6.7636 -3.407,1.4966 -0.01,7.4279 -1.11,14.6293 -2.828,18.6617 l -0.754,1.772 -0.362,-1.519 c -1.087,-4.5656 -2.924,-10.5547 -3.902,-12.7202 l -1.117,-2.4687 -0.392,5.3162 c -0.215,2.9239 -0.963,7.5573 -1.66,10.2966 -2.044,8.027 -7.622,18.7394 -12.818,24.6114 l -1.992,2.2518 -0.333,-3.5842 c -0.361,-3.8919 -1.88,-9.3519 -3.494,-12.5642 -0.56,-1.114 -2.186,-3.6122 -3.614,-5.5519 l -2.595,-3.5266 -0.366,4.7415 c -0.723,9.3615 -3.835,16.2198 -10.24,22.5637 -3.876,3.8382 -8.941,7.3885 -8.241,5.7758 z m 8.771,-33.9895 c -1.932,-7.5987 -8.867,-20.3891 -15.116,-27.8791 -1.113,-1.3338 -1.937,-2.5125 -1.829,-2.6193 0.1,-0.1062 2.128,1.0134 4.493,2.489 2.365,1.4758 7.035,4.3568 10.376,6.4023 14.781,9.0481 21.717,15.8826 24.849,24.4845 l 1.098,3.0163 1.134,-2.2231 c 4.787,-9.3857 5.343,-19.0107 1.665,-28.8714 -1.815,-4.8602 -5.51,-11.6373 -8.55,-15.6789 -1.474,-1.9582 -2.496,-3.5604 -2.273,-3.5604 0.832,0 8.841,6.3119 13.063,10.2966 2.408,2.2731 5.733,5.9556 7.391,8.1832 2.334,3.1395 2.931,3.7088 2.656,2.5316 -0.954,-4.0814 -6.41,-15.0554 -10.986,-22.0921 l -3.5,-5.3843 -3.148,1.0514 c -4.225,1.4115 -14.285,1.3723 -20.614,-0.08 -2.367,-0.5432 -4.383,-0.9112 -4.482,-0.8175 -0.101,0.093 2.533,4.1152 5.845,8.9369 3.312,4.8216 6.727,9.9057 7.586,11.2979 3.053,4.9406 7.282,12.5436 7.087,12.7385 -0.115,0.109 -1.177,-1.0701 -2.372,-2.6199 -3.401,-4.4092 -12.157,-12.483 -20.747,-19.13 -8.5,-6.5787 -13.076,-10.3745 -16.84,-13.9686 -1.613,-1.5412 -2.404,-2.0263 -2.404,-1.4746 0,1.1457 3.206,8.5398 5.598,12.9125 1.098,2.0058 1.995,3.7761 1.995,3.934 0,0.8638 -14.026,-14.3205 -17.456,-18.8981 -2.671,-3.5632 -4.097,-5.0989 -4.209,-4.5303 -0.301,1.5299 3.843,12.9442 6.794,18.7133 3.057,5.9766 9.848,16.4813 13.451,20.8075 3.023,3.6309 0.806,1.9137 -3.211,-2.486 -10.973,-12.0216 -22.17,-28.0471 -27.694,-39.6363 -1.926,-4.0403 -2.337,-4.6145 -2.489,-3.4731 -0.613,4.604 3.347,18.2125 7.783,26.7516 5.344,10.2849 11.488,17.1516 23.571,26.3405 11.249,8.5552 18.703,16.6843 21.476,23.4217 l 0.972,2.3604 0.143,-3.1611 c 0.101,-2.1137 -0.27,-4.7926 -1.106,-8.085 z m -54.244,1.5064 c -3.357,-6.976 -4.43,-11.5451 -4.43,-18.8595 0,-3.3416 0.312,-8.24 0.694,-10.8855 1.137,-7.887 0.881,-25.6554 -0.482,-33.4767 -1.942,-11.154 -2.436,-12.3812 -6.714,-16.6966 -6.086,-6.1391 -9.593,-13.2989 -12.001,-24.5055 -1.192,-5.5461 -1.307,-7.1291 -1.327,-18.1645 l -0.03,-12.0891 2.738,-2.4521 c 4.141,-3.7081 12.219,-7.5342 18.583,-8.7999 1.559,-0.3101 1.606,-0.258 4.557,5.1511 3.943,7.2278 8.084,11.5285 13.662,14.1922 3.947,1.8842 4.085,1.9103 10.078,1.9001 4.637,-0.014 7.038,-0.2717 10.146,-1.1148 6.05,-1.6423 12.824,-4.3242 20.485,-8.1096 8.726,-4.3126 12.218,-7.475 13.136,-11.8983 0.439,-2.119 0.448,-3.6354 0.03,-5.9362 -1.088,-5.9996 -2.811,-8.512 -8.357,-12.1758 -1.392,-0.9201 -4.696,-3.8792 -7.341,-6.5758 -4.521,-4.608 -5.207,-5.0972 -11.392,-8.1309 -10.484,-5.1418 -14.955,-10.3734 -15.355,-17.9676 -0.152,-2.892 0.03,-4.0209 0.931,-5.9491 0.616,-1.3087 1.3,-2.3797 1.523,-2.3797 0.222,0 1.586,1.5032 3.03,3.3404 1.852,2.3584 3.298,3.6379 4.912,4.3523 2.444,1.0813 2.773,1.0694 9.769,-0.3533 5.372,-1.0926 8.583,-0.8286 16.511,1.3578 5.313,1.4652 6.762,1.6605 12.348,1.6628 5.986,0 6.672,-0.1062 12.657,-2.0139 6.682,-2.1289 10.624,-2.5009 16.478,-1.5544 2.516,0.4067 2.579,0.3845 4.213,-1.4762 0.912,-1.0391 2.026,-2.6602 2.475,-3.6024 0.451,-0.9422 0.999,-1.7131 1.222,-1.7131 0.723,0 2.965,5.0112 3.285,7.3444 0.633,4.6243 -2.709,9.2801 -9.5,13.2313 -1.501,0.8741 -4.325,2.5059 -6.274,3.6261 -6.252,3.5921 -7.696,4.8873 -9.564,8.5787 -1.985,3.9195 -3.181,5.1418 -8.283,8.4628 -6.253,4.0702 -9.043,8.5172 -9.618,15.3327 -0.237,2.7983 -0.115,3.3877 1.035,5.1287 2.273,3.4358 10.904,8.4384 20.543,11.9072 12.915,4.6477 21.359,0.2373 27.038,-14.1219 4.62,-11.6789 5.252,-32.2256 1.573,-51.1361 -2.81,-14.4388 -11.649,-38.0418 -18.353,-49.0013 -4.137,-6.7645 -3.985,-7.0933 0.577,-1.2486 5.66,7.2521 9.456,13.49 14.56,23.9225 5.385,11.0069 5.06,10.7658 6.019,4.4757 0.261,-1.7154 0.937,-3.9938 1.501,-5.063 l 1.026,-1.9442 0.01,5.1896 c 0,2.8543 0.198,5.1896 0.413,5.1896 0.215,0 1.949,-1.7211 3.855,-3.8245 1.904,-2.1035 3.561,-3.7267 3.681,-3.6073 0.115,0.1191 -0.129,1.0999 -0.554,2.179 -1.231,3.1372 -2.296,8.334 -2.27,11.0751 l 0.03,2.5315 0.821,-1.772 c 4.993,-10.7732 7.183,-15.0882 10.049,-19.7887 1.852,-3.0394 3.442,-5.5261 3.534,-5.5261 0.271,0 -0.996,3.797 -4.224,12.6573 -4.001,10.9795 -7.427,20.8481 -8.434,24.2912 -1.255,4.2844 -0.07,2.5415 5.644,-8.3428 8.383,-15.9547 11.002,-22.3946 13.667,-33.6011 1.326,-5.5741 1.401,-6.5281 1.391,-17.788 0,-9.278 -0.214,-13.013 -0.931,-16.961 -2.947,-16.1901 -7.255,-29.6573 -16.1,-50.3222 -2.193,-5.1221 -3.887,-9.4119 -3.766,-9.5339 0.129,-0.1148 0.818,0.1694 1.547,0.6473 0.729,0.4779 1.49,0.7047 1.689,0.5052 0.201,-0.2009 -1.055,-3.1215 -2.79,-6.4927 -1.735,-3.3698 -3.065,-6.2158 -2.959,-6.3234 0.115,-0.1005 1.109,0.3832 2.226,1.0878 2.243,1.4151 4.647,2.1873 4.647,1.4912 0,-0.6889 -5.124,-6.9549 -6.834,-8.3599 -0.837,-0.686 -2.931,-2.0953 -4.656,-3.1301 -2.021,-1.2113 -4.265,-3.2234 -6.308,-5.6517 -6.363,-7.5677 -14.356,-11.899 -21.912,-11.8775 -6.028,0.014 -14.23,2.6565 -19.154,6.1612 -1.037,0.7391 -1.476,0.8711 -1.294,0.3861 0.809,-2.1499 0.946,-3.011 0.476,-3.011 -0.282,0 -2.896,1.593 -5.809,3.5405 -8.402,5.6187 -13.5,12.0483 -15.761,19.8801 -1.065,3.6883 -0.503,5.6861 2.524,8.954 2.176,2.3494 4.808,6.2129 4.808,7.0567 0,0.2569 -1.082,0.1292 -2.404,-0.2813 -3.45,-1.0706 -8.971,-0.6673 -11.678,0.8554 -1.16,0.6516 -2.237,1.0549 -2.395,0.897 -0.744,-0.7434 2.102,-5.1795 4.366,-6.8042 l 2.401,-1.725 -2.752,-6.1871 c -1.511,-3.4042 -3.817,-7.7413 -5.122,-9.64 -2.84,-4.1305 -8.783,-9.897 -13.308,-12.9123 l -3.282,-2.1872 -0.158,2.0982 -0.157,2.0968 -1.733,-1.3218 c -7.287,-5.5584 -22.989,-9.396 -32.444,-7.9279 -10.802,1.6749 -16.588,5.3087 -26.334,16.5361 -1.701,1.9604 -5.507,5.3776 -8.459,7.5949 -2.951,2.2174 -5.372,4.2094 -5.38,4.4275 -0.03,0.8482 1.623,0.9516 3.791,0.2368 1.249,-0.4104 2.271,-0.6716 2.271,-0.5798 0,0.3344 -8.011,10.1008 -9.053,11.038 -0.59,0.5295 -1.074,1.1567 -1.074,1.3921 0,0.6114 2.915,0.5295 4.122,-0.1148 0.65,-0.3474 0,0.8998 -1.779,3.4472 -8.771,12.5162 -18.675,32.1172 -23.041,45.5966 -5.209,16.0847 -5.979,33.9793 -2.065,48.005 3.99,14.2903 17.221,36.6514 34.817,58.8366 2.057,2.5948 3.848,4.6111 3.979,4.4806 0.343,-0.3437 -4.637,-13.4586 -7.188,-18.9265 -1.198,-2.5658 -4.335,-7.9198 -6.973,-11.8978 -15.949,-24.0471 -20.615,-41.259 -17.274,-63.7193 2.116,-14.2294 9.123,-32.8648 16.549,-44.0058 3.578,-5.3696 3.813,-5.4542 1.134,-0.4073 -4.3,8.0981 -7.849,19.4001 -10.074,32.0841 -4.076,23.2341 -2.602,42.8664 4.574,60.9678 3.1,7.8192 5.883,12.8473 12.611,22.7833 6.101,9.0085 10.952,17.1532 13.484,22.6344 0.874,1.892 1.672,3.0983 1.772,2.6805 0.296,-1.213 -4.229,-18.849 -6.141,-23.9381 -0.959,-2.5517 -1.661,-4.7217 -1.56,-4.8222 0.291,-0.291 3.773,5.3079 6.483,10.4255 1.369,2.5861 3.247,6.8782 4.173,9.5383 0.926,2.6601 1.847,4.9871 2.047,5.1711 1.218,1.1232 -3.224,-21.92 -5.431,-28.1754 -2.677,-7.5882 -6.081,-13.6051 -10.92,-19.3 l -1.906,-2.243 2.662,1.4401 c 4.694,2.5392 9.429,6.9732 12.617,11.8169 1.62,2.4637 3.237,4.9157 3.592,5.4489 0.547,0.8205 0.603,0.5032 0.359,-2.0687 -0.465,-4.9048 -1.293,-8.4172 -2.686,-11.3908 -0.717,-1.532 -1.403,-3.0133 -1.522,-3.2917 -0.115,-0.2786 0.559,0.2293 1.507,1.1285 3.559,3.3765 6.477,9.7963 6.505,14.3135 0,1.6122 0.287,1.2696 3.06,-3.7971 1.676,-3.0631 4.485,-7.5752 6.24,-10.0266 3.318,-4.6303 10.896,-13.2356 11.301,-12.831 0.129,0.1277 -0.393,1.2215 -1.157,2.4312 -4.702,7.4485 -11.174,23.6942 -13.077,32.8306 -1.566,7.5081 -2.057,15.699 -1.388,23.1136 0.34,3.76 0.669,7.0817 0.732,7.3816 0.07,0.3201 -1.768,0.8238 -4.443,1.2199 -5.387,0.7975 -10.647,2.3184 -14.138,4.0874 -2.655,1.3456 -8.047,5.2151 -7.722,5.5411 0.101,0.1062 2.129,-0.8385 4.495,-2.0976 5.151,-2.7398 8.455,-3.9213 14.704,-5.2567 8.025,-1.715 7.53,-1.8172 8.265,1.7046 0.347,1.6708 0.778,3.4025 0.957,3.8482 0.271,0.6806 -0.228,0.857 -3.118,1.0999 -4.696,0.3946 -12.518,2.9875 -16.145,5.3519 -3.651,2.3796 -8.294,7.1944 -9.816,10.1807 -3.65,7.1524 -5.213,19.8706 -3.852,31.3363 0.948,7.9932 0.948,8.0762 0,5.1414 -1.543,-4.7249 -4.237,-17.3061 -5.052,-23.595 -0.946,-7.2941 -0.781,-24.7978 0.284,-30.2237 0.317,-1.6149 0.507,-3.6653 0.421,-4.5567 -0.148,-1.5214 -0.27,-1.388 -1.987,2.1764 -2.46,5.1042 -4.228,10.7097 -5.59,17.7204 -1.581,8.1435 -1.577,22.3248 0,31.0902 0.6,3.3156 1.011,6.1102 0.91,6.2102 -0.565,0.5658 -3.975,-13.43 -5.141,-21.0989 -1.715,-11.2898 -1.471,-31.818 0.513,-43.0847 0.412,-2.3398 0.749,-4.5877 0.749,-4.9954 0,-1.5616 -1.374,0.7412 -3.172,5.3116 -4.066,10.3381 -6.323,22.1455 -6.821,35.6804 -0.369,10.0572 -0.52,9.7399 -2.156,-4.5567 -1.482,-12.9542 -1.381,-28.6154 0.283,-43.2778 0.275,-2.4319 0.251,-2.4982 -0.566,-1.5295 -3.078,3.6544 -7.719,17.2962 -9.559,28.0996 l -1.166,6.835 -0.302,-3.7973 c -0.167,-2.0885 -0.417,-11.0879 -0.553,-19.9987 -0.224,-14.5098 -1.178,-28.3103 -2.121,-30.6309 -0.629,-1.5489 -4.266,13.2549 -6.344,25.821 -0.964,5.8341 -1.135,8.837 -1.161,20.5051 -0.03,12.1587 0.101,14.3976 1.146,20.2518 4.82,26.9869 15.995,50.6424 30.734,65.0593 l 3.882,3.7972 -1.498,-3.0377 c -3.67,-7.4453 -13.79,-35.4703 -13.79,-38.1891 0,-0.4248 1.38,1.9564 3.065,5.2915 3.572,7.0702 6.426,11.3965 16.863,25.5562 4.206,5.7084 8.746,12.2017 10.086,14.4294 7.291,12.116 10.966,24.2649 11.019,36.4161 0.04,8.9952 1.565,22.3914 2.486,21.8221 0.21,-0.1292 0.534,-2.0642 0.721,-4.2995 0.186,-2.2355 1.016,-8.3372 1.842,-13.5595 1.692,-10.6734 1.866,-16.2021 0.745,-23.6714 -2.197,-14.6313 -8.436,-27.9026 -18.506,-39.3646 -1.408,-1.6011 -2.368,-2.9111 -2.136,-2.9111 0.993,0 11.031,10.0488 14.068,14.0828 8.469,11.2502 12.237,22.458 13.417,39.8969 0.791,11.7019 1.806,16.4795 5.015,23.6326 2.315,5.1597 8.259,14.4741 9.264,14.5181 0.198,0.014 -0.656,-2.0918 -1.896,-4.6677 z m -31.689,-117.4659 c -0.376,-2.8516 -0.686,-9.3713 -0.689,-14.4884 v -9.3038 l 3.189,-2.9324 c 4.314,-3.9682 9.96,-6.6938 17.316,-8.3599 3.203,-0.7254 6.221,-1.5302 6.709,-1.7887 0.623,-0.3301 0.89,-0.2804 0.899,0.1674 0,0.3504 0.548,1.942 1.204,3.5368 l 1.192,2.8998 -1.838,0.3061 c -6.229,1.0375 -13.557,4.4216 -17.683,8.1674 -2.331,2.1159 -2.918,3.0648 -4.481,7.2446 -1.999,5.3482 -4.216,14.4351 -4.223,17.3108 0,3.8417 -0.929,2.2453 -1.589,-2.7597 z m 50.062,-22.6965 c -1.263,-0.7293 -1.095,-1.7224 0.403,-2.4055 1.796,-0.8178 3.244,-0.733 3.605,0.2111 0.59,1.5347 -2.358,3.148 -4.008,2.1944 z m -10.899,-0.7435 c -2.376,-1.6645 -0.59,-3.7684 3.202,-3.7684 1.672,0 3.773,1.3929 3.773,2.5028 0,0.9088 -2.257,2.0538 -4.05,2.0538 -0.99,0 -2.306,-0.3547 -2.925,-0.7882 z m 22.39,-0.9409 c -1.003,-0.7336 -0.717,-2.1646 0.529,-2.6425 0.858,-0.3294 2.283,0.6238 2.283,1.5271 0,0.3166 -0.431,0.8448 -0.957,1.1736 -0.747,0.4655 -1.156,0.4526 -1.855,-0.057 z m -27.783,-1.598 c -0.965,-0.9646 -1.098,-2.9797 -0.162,-2.4499 1.344,0.7621 2.867,2.4004 2.612,2.8128 -0.421,0.6796 -1.579,0.5079 -2.45,-0.3629 z m 109.577,-1.0876 c -1.003,-0.3621 -2.532,-1.71 -2.532,-2.2327 0,-0.6477 3.05,-2.0635 3.813,-1.7703 1.047,0.401 2.482,2.8375 1.959,3.3239 -0.681,0.6336 -2.379,0.9897 -3.24,0.6791 z m 4.05,-1.0425 c 0,-0.6496 1.726,-2.1373 2.48,-2.1373 0.363,0 0.56,0.483 0.466,1.1393 -0.115,0.8156 -0.557,1.1846 -1.553,1.2992 -0.766,0.088 -1.393,-0.047 -1.393,-0.3012 z m -13.331,-0.9558 c -0.715,-0.7136 -0.29,-2.1409 0.73,-2.4651 1.319,-0.4186 2.644,0.7638 2.187,1.9531 -0.32,0.8347 -2.256,1.1741 -2.917,0.512 z m -98.238,-7.8001 c -0.735,-0.577 -1.335,-1.3581 -1.335,-1.7352 0,-0.9927 2.47,-2.7847 3.838,-2.7847 0.643,0 1.781,0.526 2.527,1.1688 3.209,2.7596 -1.66,6.0025 -5.03,3.3511 z m 10.411,-0.5707 c -1.568,-1.5675 0.399,-3.5858 3.263,-3.3499 2.252,0.1855 2.833,1.4124 1.412,2.9825 -0.994,1.0977 -3.73,1.3127 -4.675,0.3674 z m -16.789,-0.6339 c -1.724,-2.0766 1.414,-3.8482 3.241,-1.8299 0.762,0.8413 0.813,1.1662 0.291,1.796 -0.809,0.9749 -2.735,0.9934 -3.532,0.034 z m 29.447,-0.3788 c -0.936,-0.935 -0.728,-1.8217 0.633,-2.7136 2.384,-1.5619 4.711,0.428 2.697,2.305 -1.236,1.152 -2.439,1.2997 -3.33,0.4086 z m 85.137,-4.2086 c -0.333,-0.8676 0.64,-2.2721 1.575,-2.2721 0.907,0 2.449,1.8717 2.062,2.4997 -0.511,0.8258 -3.3,0.6511 -3.637,-0.2276 z m 6.556,-0.068 c -0.357,-0.9305 1.036,-2.2051 2.411,-2.2051 1.366,0 2.251,1.3562 1.484,2.2783 -0.858,1.0341 -3.489,0.9847 -3.895,-0.073 z m -15.338,-0.9328 c -0.826,-0.9949 -0.289,-2.2848 0.949,-2.2848 1.632,0 2.589,0.5617 2.589,1.5188 0,1.5217 -2.468,2.0559 -3.538,0.766 z m -99.113,-6.1643 c -0.987,-0.3982 -0.747,-2.6055 0.346,-3.1909 1.313,-0.7033 3.237,-0.6629 3.983,0.083 0.847,0.8476 0.768,1.228 -0.501,2.4105 -1.061,0.9879 -2.471,1.2448 -3.828,0.697 z m -8.324,-1.4456 c -1.273,-2.793 1.477,-4.233 3.96,-2.0743 1.197,1.0397 1.355,1.4242 0.896,2.1791 -0.336,0.5515 -1.294,0.9793 -2.403,1.0736 -1.576,0.1335 -1.933,-0.037 -2.453,-1.1784 z m 18.504,-0.5038 c -0.413,-1.0778 0.729,-2.272 2.176,-2.272 1.589,0 2.155,1.4481 0.92,2.3517 -1.245,0.9096 -2.731,0.8713 -3.096,-0.079 z m 10.325,-2.3124 c -1.262,-0.735 -1.095,-1.911 0.364,-2.5763 0.957,-0.4357 1.434,-0.4185 2.025,0.073 0.979,0.812 0.975,1.2592 -0.01,2.2546 -0.923,0.9221 -1.168,0.948 -2.37,0.2487 z m 87.716,-0.2126 c -0.941,-1.1336 0.243,-2.2783 2.357,-2.2783 1.916,0 2.702,1.063 1.687,2.2848 -0.808,0.9737 -3.235,0.9699 -4.044,0 z m 7.404,-0.5247 c -0.471,-1.2274 0.06,-1.7536 1.774,-1.7536 1.292,0 1.5,0.1742 1.362,1.1391 -0.202,1.427 -2.641,1.9047 -3.136,0.6145 z m -14.98,-0.4657 c -0.754,-0.9079 -0.274,-1.7943 0.97,-1.7943 1.132,0 1.673,1.1856 0.895,1.9635 -0.75,0.751 -1.13,0.7166 -1.865,-0.1692 z m -82.391,-34.9607 c 0.652,-2.1906 4.399,-22.1566 5.368,-28.6018 0.565,-3.7593 1.185,-9.1134 1.379,-11.898 0.326,-4.6975 0.29,-5.0125 -0.496,-4.3631 -0.467,0.3849 -1.545,2.0081 -2.397,3.6072 -0.853,1.599 -2.219,3.6763 -3.037,4.6162 l -1.485,1.709 0.383,-1.519 c 0.815,-3.2228 0.364,-7.6129 -1.024,-9.9803 -2.303,-3.9327 -5.783,-7.3511 -9.13,-8.9719 -2.67,-1.2922 -4.066,-1.5888 -9.461,-2.0092 -3.48,-0.2714 -7.299,-0.84 -8.486,-1.2637 -4.831,-1.7253 -8.466,-5.3382 -11.511,-11.4436 -1.685,-3.378 -1.461,-3.1257 -2.436,-2.7518 -1.362,0.5225 -1.978,3.3009 -1.352,6.1023 1.247,5.5824 5.86,10.4692 13.331,14.1257 5.358,2.6212 4.431,3.0689 -2.091,1.0091 -7.071,-2.2338 -12.61,-6.6694 -15.078,-12.072 -1.324,-2.8991 -1.468,-5.1861 -0.641,-10.2004 0.129,-0.8218 -0.291,-1.1211 -2.367,-1.6605 -1.392,-0.362 -3.157,-0.5431 -3.923,-0.4026 -1.942,0.3566 -1.865,-1.1717 0.179,-3.4987 1.846,-2.1031 3.041,-2.2377 8.178,-0.9214 l 3.421,0.8768 5.692,-1.5025 c 11.123,-2.9356 20.206,-1.7869 25.826,3.266 3.594,3.2309 4.68,5.2416 7.493,13.8691 2.646,8.1207 4.097,11.1826 5.842,12.3276 0.93,0.6095 1.21,0.5837 2.179,-0.2001 1.264,-1.0246 3.06,-6.8351 4.389,-14.2105 0.466,-2.5872 0.953,-4.5987 1.082,-4.47 0.55,0.5507 1.673,10.7902 1.978,18.0343 0.513,12.25 -1.217,26.0176 -4.657,37.0393 -1.787,5.7258 -5.667,14.8879 -6.648,15.7034 -0.692,0.5735 -0.759,0.5266 -0.5,-0.3449 z m -16.496,-64.3399 c 2.235,-1.305 4.696,-4.8024 4.696,-6.6727 0,-0.5823 -0.818,-1.9273 -1.819,-2.989 l -1.822,-1.9305 -0.67,1.9514 c -0.848,2.4671 -2.959,4.6902 -5.138,5.4089 -3.678,1.214 -8.271,-2.2027 -8.271,-6.154 0,-1.1225 0.237,-2.4814 0.524,-3.0201 0.571,-1.0674 0.378,-1.1343 -1.945,-0.6699 -3.577,0.7156 -4.678,4.2161 -2.69,8.5508 2.97,6.4755 11.047,9.0797 17.135,5.5251 z m -4.612,-11.71 c 1.194,-1.2881 1.218,-1.4164 0.384,-2.0252 -0.502,-0.3675 -2.284,-0.6501 -4.1,-0.6501 -3.169,0 -3.205,0.016 -2.623,1.1391 1.697,3.2808 4.167,3.8794 6.339,1.5362 z m 109.783,70.4726 c -11.147,-15.0731 -20.211,-36.1543 -24.043,-55.9224 -0.512,-2.6392 -0.837,-4.8928 -0.722,-5.0082 0.115,-0.1148 0.649,0.7911 1.184,2.0138 2.938,6.7029 5.662,12.0963 6.111,12.0963 1.306,0 2.898,-3.9145 5.132,-12.6177 1.616,-6.2958 3.117,-9.1225 6.642,-12.5124 4.929,-4.7379 10.105,-6.7667 17.271,-6.7667 7.408,0 11.908,1.8435 15.035,6.1614 2.088,2.8809 2.021,3.6179 -0.24,2.673 -0.966,-0.4034 -2.302,-0.7335 -2.969,-0.7335 -1.573,0 -3.676,2.1258 -4.425,4.4746 -1.056,3.306 -3.625,7.6743 -5.463,9.2885 -2.72,2.3877 -6.371,3.8295 -11.968,4.7262 -8.08,1.2945 -9.942,2.8534 -13.201,11.0564 l -1.379,3.4716 0.895,2.8396 c 0.927,2.9415 13.478,33.6783 14.781,36.1981 1.633,3.1591 0.171,2.3621 -2.641,-1.4386 z m 6.042,-58.0716 c 3.057,-0.9079 6.618,-4.6557 7.615,-8.0179 0.919,-3.092 1.031,-6.1851 0.275,-7.5981 -0.442,-0.8258 -1.084,-0.9792 -4.088,-0.9792 h -3.563 l 1.05,1.334 c 0.741,0.9428 1.049,2.0713 1.049,3.8479 0,2.1751 -0.228,2.7417 -1.692,4.2053 -3.008,3.0084 -6.544,2.9667 -9.624,-0.1134 -1.016,-1.0161 -1.919,-1.7526 -2.006,-1.6366 -0.09,0.1162 -0.658,0.8682 -1.266,1.6715 -1.428,1.8837 -1.395,2.4229 0.264,4.3951 2.646,3.145 7.329,4.2749 11.986,2.892 z m -2.686,-11.9989 c 2.643,-2.644 0.481,-4.1621 -2.951,-2.0704 -1.94,1.1832 -2.036,1.6986 -0.519,2.7614 1.519,1.0648 1.762,1.0166 3.47,-0.691 z m -138.764,54.028 c -13.468,-4.7453 -20.873,-17.2807 -18.537,-31.3775 0.876,-5.2882 1.774,-7.3718 1.44,-3.3424 -0.662,7.9909 2.957,17.2328 9.202,23.4893 5.451,5.463 13.658,9.0884 23.26,10.275 3.094,0.3825 3.104,0.3891 1.596,1.0371 -0.836,0.3588 -4.253,0.748 -7.595,0.8651 -5.371,0.1881 -6.457,0.079 -9.366,-0.9466 z m 151.886,-0.3511 c -2.43,-0.7694 -4.315,-2.0077 -6.548,-4.3013 -1.235,-1.2696 -2.141,-2.4134 -2.013,-2.5417 0.129,-0.1278 1.184,0.4054 2.346,1.1861 6.665,4.4755 13.969,0.8667 18.881,-9.3279 2.465,-5.1144 3.524,-10.3026 3.588,-17.5725 l 0.04,-5.7172 0.946,2.9207 c 3.813,11.7943 1.085,25.1543 -6.497,31.8117 -3.184,2.7955 -8.05,4.3982 -10.754,3.5421 z m -64.484,-33.2841 c -2.8,-20.3047 -4.428,-33.7462 -5.372,-44.3463 -0.544,-6.1056 -0.764,-19.5503 -0.326,-19.9866 0.96,-0.9601 4.431,10.3792 5.688,18.5856 0.964,6.2884 1.66,45.8634 0.834,47.3406 -0.379,0.6786 -0.557,0.3343 -0.824,-1.5933 z m 79.408,-16.6555 c 0.531,-4.4227 -1.45,-12.237 -4.808,-18.9659 -1.042,-2.0885 -2.263,-4.6794 -2.714,-5.7575 l -0.818,-1.9604 1.14,0.7486 c 2.063,1.3563 6.363,8.2846 7.546,12.1582 1.438,4.7151 1.576,11.4452 0.285,14.0504 l -0.876,1.7721 z m -122.179,-3.9681 c -1.493,-2.0889 -3.94,-4.6867 -5.551,-5.8941 -5.849,-4.3841 -15.609,-7.8479 -21.142,-7.5031 -3.292,0.2051 -3.312,-0.3609 -0.07,-2.0264 4.08,-2.1 9.711,-1.5626 17.696,1.6887 0.789,0.3218 0.769,0.068 -0.214,-2.6048 -1.513,-4.1146 -1.642,-15.2352 -0.227,-19.4159 2.719,-8.024 8.69,-14.7665 15.397,-17.3828 3.205,-1.2515 3.243,-1.0147 0.115,0.7061 -7.224,3.9726 -11.021,10.3031 -12.158,20.2675 -0.927,8.1321 1.015,16.0533 5.928,24.1818 1.775,2.939 3.009,5.6289 3.249,7.0882 0.518,3.1341 0.534,4.63 0.06,4.63 -0.219,0 -1.6,-1.6809 -3.07,-3.7352 z m 74.854,0.033 c 0,-2.8581 0.289,-3.7683 2.736,-8.6269 3.609,-7.1674 4.601,-11.1705 4.598,-18.5555 0,-13.6235 -5.015,-21.9705 -15.387,-25.6402 -2.645,-0.9358 -2.917,-1.118 -1.313,-0.8741 7.938,1.2085 14.296,6.266 18.372,14.6158 1.738,3.5621 2.444,6.2631 2.913,11.1614 0.302,3.1311 -0.254,9.2992 -1.078,11.9877 -0.231,0.7532 0.101,0.7015 2.466,-0.38 5.236,-2.3971 9.436,-2.4329 12.694,-0.1091 l 1.593,1.1361 -3.649,0.326 c -7.577,0.6769 -15.671,6.1291 -20.882,14.0659 -1.476,2.2483 -2.769,4.0879 -2.873,4.0879 -0.101,0 -0.19,-1.4379 -0.19,-3.1952 z m -99.65,-25.1732 c 2.113,-1.116 2.248,-1.4275 2.727,-6.3127 0.468,-4.7605 1.963,-8.5766 4.395,-11.213 2.129,-2.3107 6.045,-4.4519 8.99,-4.9155 1.624,-0.2569 1.56,-0.1837 -0.785,0.8898 -5.578,2.5503 -7.436,5.3891 -9.287,14.181 -0.582,2.7598 -1.414,5.5614 -1.848,6.225 -0.894,1.3633 -2.686,2.1846 -4.694,2.1515 -1.31,-0.021 -1.293,-0.057 0.502,-1.0061 z m 122.108,-5.6798 c -2.077,-2.2217 -3.212,-3.9525 -5.732,-8.733 -2.4,-4.5538 -5.684,-7.9839 -8.507,-8.8852 -2.787,-0.8912 -3.345,-1.6949 -0.877,-1.2629 6.419,1.1237 9.841,4.4519 14.265,13.8709 1.719,3.6597 2.96,6.6549 2.757,6.6549 -0.203,0 -1.061,-0.7391 -1.906,-1.6447 z m -161.681,306.6894 c 4.14,-9.1438 3.127,-17.3696 -3.515,-28.5057 -1.379,-2.3118 -5.435,-8.3494 -9.011,-13.4169 -9.289,-13.1579 -12.528,-18.328 -16.875,-26.9339 -8.364,-16.5623 -13.108,-33.2457 -15.506,-54.5258 -1.109,-9.8501 -1.263,-40.2952 -0.255,-50.2776 0.936,-9.2506 2.424,-19.6101 3.951,-27.5008 0.719,-3.7085 1.2,-6.8484 1.071,-6.9774 -0.387,-0.3862 -1.579,1.7559 -4.34,7.7953 -5.889,12.8775 -10.081,28.2603 -12.761,46.8155 l -0.968,6.7011 0.228,-9.6197 c 0.482,-20.3786 4.768,-46.1058 10.646,-63.92 0.501,-1.514 -0.662,-0.3989 -2.38,2.2828 -6.992,10.9193 -14.027,29.131 -16.866,43.6637 -2.062,10.5511 -2.241,11.0158 -1.96,5.063 0.363,-7.703 1.98,-19.1038 3.703,-26.0843 3.645,-14.7872 10.89,-31.9639 19.565,-46.3892 1.784,-2.964 3.242,-5.5668 3.242,-5.7841 0,-1.5762 -10.842,11.8094 -16.022,19.7814 -7.992,12.2978 -15.378,29.1267 -19.435,44.2816 -2.09,7.8068 -2.222,7.1103 -0.666,-3.5258 3.236,-22.1157 13.293,-44.838 31.41,-70.9739 2.922,-4.2154 5.447,-8.0133 5.612,-8.4398 1.022,-2.6634 -14.854,11.9256 -20.229,18.5882 -11.444,14.1886 -20.143,34.0409 -23.466,53.5592 -2.756,16.1757 -2.501,30.6882 0.823,47.0008 1.368,6.7113 8.263,27.5606 8.903,26.9205 0.129,-0.1349 0.218,-4.4507 0.183,-9.5898 -0.06,-8.7292 0.85,-20.0577 1.974,-24.6623 0.334,-1.3733 0.443,-0.6331 0.485,3.291 0.179,17.3666 5.264,39.5625 13.107,57.2116 1.843,4.1485 3.308,6.4448 2.878,4.5127 -0.115,-0.5327 -0.798,-4.5001 -1.509,-8.8162 -0.711,-4.3162 -1.735,-10.126 -2.274,-12.9107 -3.268,-16.861 -4.27,-21.7871 -5.355,-26.2945 -0.664,-2.7666 -1.134,-5.1044 -1.043,-5.1952 0.221,-0.2209 4.363,9.6501 6.309,15.0352 2.273,6.2885 4.058,12.0797 9.137,29.6183 5.024,17.3488 6.607,22.0737 10.197,30.4419 5.951,13.8684 12.624,24.0171 26.593,40.4397 4.789,5.6308 7.949,10.9091 9.701,16.2016 1.144,3.4549 1.347,4.9657 1.38,10.2774 0.04,6.1905 0.04,6.2203 1,5.063 0.53,-0.6404 1.582,-2.5312 2.338,-4.2019 z m 174.148,-25.8212 c 6.839,-11.2406 10.216,-18.0327 12.624,-25.3905 2.597,-7.9411 3.588,-13.047 4.301,-22.2014 0.643,-8.2284 0.855,-8.1082 1.851,1.0449 1.212,11.1398 -0.221,23.9426 -4.035,36.0676 -1.823,5.7979 -1.174,5.4112 3.051,-1.8162 6.157,-10.534 9.617,-19.4154 11.333,-29.0925 1.671,-9.4152 0.465,-25.4125 -2.316,-30.7592 -0.507,-0.9746 -3.226,-4.5062 -6.042,-7.8477 -6.517,-7.732 -14.301,-19.3617 -15.829,-23.6486 -1.086,-3.0496 -1.981,8.3636 -1.337,17.0668 0.267,3.6201 1.035,10.9107 1.706,16.2015 1.148,9.066 2.231,25.1081 1.655,24.5554 -0.145,-0.1392 -0.654,-2.1805 -1.131,-4.5362 -1.149,-5.6713 -2.923,-10.9162 -5.574,-16.4752 -2.222,-4.6578 -6.253,-11.1231 -6.674,-10.7022 -0.129,0.1292 0.04,3.3441 0.369,7.1453 0.468,5.3632 0.467,8.1802 0,12.5755 -0.551,5.1406 -0.514,6.1554 0.416,10.9803 0.564,2.9237 1.299,8.2465 1.634,11.8281 0.709,7.5809 0.383,23.3755 -0.606,29.435 l -0.662,4.0504 -0.393,-4.8098 c -0.752,-9.2052 -3.945,-21.4725 -7.621,-29.2744 -1.606,-3.4079 -1.634,-1.895 -0.15,7.5882 2.082,13.2969 2.612,23.0812 1.867,34.4917 -0.349,5.3486 -0.957,11.5474 -1.352,13.7751 -0.396,2.2276 -0.722,4.2782 -0.723,4.5566 0,0.2784 1.887,-3.2529 4.2,-7.8475 2.314,-4.5947 6.563,-12.2271 9.444,-16.961 z m -16.176,12.3113 c 0.837,-6.0808 0.728,-18.5027 -0.212,-24.2663 -1.206,-7.3802 -6.192,-20.5716 -7.576,-20.0405 -0.349,0.1335 -2.053,0.6414 -3.786,1.1276 -1.733,0.4864 -3.245,1.0361 -3.36,1.2214 -0.115,0.1854 0,1.2359 0.26,2.3344 0.439,1.8759 2.017,13.5036 1.987,14.6395 0,0.2868 -0.884,-1.3013 -1.947,-3.5289 -1.395,-2.9233 -2.721,-4.7901 -4.765,-6.7085 -2.711,-2.5444 -4.907,-3.3985 -5.65,-2.1975 -0.84,1.3592 6.366,13.9301 12.44,21.6997 2.481,3.174 4.855,6.4354 5.274,7.2474 0.421,0.8121 0.815,1.4767 0.877,1.477 0.344,0 -0.63,-14.3126 -1.117,-16.3957 -0.747,-3.2068 -0.427,-3.4413 0.886,-0.6489 2.738,5.8263 5.096,17.7404 5.178,26.1575 0.04,5.0954 0.631,4.2798 1.511,-2.1182 z m -213.945,-35.6755 c -2.271,-13.4326 -6.199,-25.8051 -14.925,-47.0111 -11.263,-27.3692 -14.05,-36.2773 -16.395,-52.4017 -3.879,-26.6798 -0.38,-55.5173 9.636,-79.4238 7.981,-19.0492 23.067,-39.6373 37.208,-50.7751 2.227,-1.7544 3.82,-3.2659 3.542,-3.359 -0.28,-0.093 -3.113,1.0693 -6.298,2.583 -10.506,4.9942 -17.994,10.446 -28.621,20.8384 -27.413,26.809 -43.611,59.6296 -47.977,97.2149 -0.996,8.5806 -0.72,27.4607 0.518,35.4518 1.497,9.6476 2.442,14.4156 2.811,14.1871 0.205,-0.1263 0.508,-4.8509 0.674,-10.4993 0.557,-18.8978 3.881,-40.0115 9.31,-59.1274 1.982,-6.979 5.736,-17.8811 6.051,-17.5678 0.115,0.1091 -0.61,3.139 -1.598,6.7319 -5.086,18.4947 -7.16,35.4155 -6.666,54.3775 0.402,15.4398 1.999,26.1811 5.722,38.4785 2.992,9.8885 12.506,31.0005 11.065,24.5555 -0.186,-0.8354 -0.535,-2.3163 -0.773,-3.291 -0.948,-3.8817 -3.564,-20.039 -4.752,-29.3652 -1.893,-14.8447 -2.495,-27.0821 -2.088,-42.529 0.492,-18.7717 0.978,-22.1961 1.471,-10.3791 0.813,19.5474 3.519,35.9055 8.472,51.23 4.876,15.0867 9.71,24.9777 20.244,41.4224 5.386,8.4075 8.267,13.338 11.196,19.1658 1.379,2.7442 2.622,4.8752 2.763,4.7354 0.143,-0.1392 -0.13,-2.4991 -0.59,-5.2427 z m 271.717,-0.5584 c 9.086,-9.5115 17.085,-25.364 20.208,-40.0438 2.653,-12.467 1.413,-31.3598 -2.813,-42.8623 -0.951,-2.5918 2.701,3.5272 4.943,8.2795 6.873,14.569 9.953,31.2673 8.528,46.2222 -0.31,3.2435 -0.705,6.6611 -0.88,7.5945 -0.555,2.9625 0.553,1.0115 3.491,-6.1504 7.884,-19.2222 10.834,-33.7029 10.363,-50.8714 -0.378,-13.7167 -2.678,-24.8694 -7.783,-37.7306 -2.642,-6.6572 -8.014,-17.6638 -10.183,-20.8673 -2.392,-3.5325 -2.356,-3.8411 0.13,-1.1566 4.044,4.3572 10.585,12.4819 13.576,16.8645 1.58,2.3137 2.872,3.8375 2.872,3.386 0,-1.0859 -4.208,-13.9947 -6.425,-19.7054 -3.119,-8.0405 -8.413,-18.6848 -12.129,-24.3932 -0.937,-1.4389 -0.937,-1.4395 0.115,-0.694 1.389,0.9832 12.35,12.3808 16.542,17.2008 8.711,10.0168 15.554,21.3142 17.325,28.6057 2.397,9.8686 1.793,22.1274 -1.696,34.4211 -0.553,1.9452 -0.943,3.5984 -0.867,3.6737 0.07,0.075 0.964,-1.6302 1.978,-3.79 2.583,-5.5079 6.158,-16.6451 7.798,-24.2897 1.278,-5.9576 1.388,-7.3748 1.397,-17.8626 0,-10.0728 -0.129,-12.0365 -1.183,-16.961 -3.893,-18.1841 -12.921,-35.7528 -26.667,-51.8954 -4.931,-5.7917 -15.198,-15.7166 -20.531,-19.8468 -5.61,-4.3441 -16.057,-11.1561 -16.755,-10.9238 -0.297,0.099 1.367,1.7996 3.697,3.779 10.484,8.9034 24.038,24.1315 32.137,36.1049 5.092,7.5294 15.053,25.3149 14.178,25.3149 -0.115,0 -1.408,-1.8797 -2.872,-4.177 -5.834,-9.1499 -12.822,-18.0602 -22.691,-28.9353 -7.948,-8.7582 -19.885,-19.6306 -20.68,-18.836 -0.115,0.1134 1.916,2.7939 4.511,5.9553 13.307,16.2088 20.278,27.2132 26.183,41.3314 1.895,4.5259 1.384,4.3466 -1.478,-0.5188 -1.19,-2.0239 -3.825,-6.116 -5.857,-9.0937 -4.094,-6.0022 -15.973,-21.2638 -16.298,-20.9395 -0.115,0.1134 0.639,3.2418 1.671,6.9513 1.861,6.6944 5.398,23.7652 5.006,24.1697 -0.295,0.3037 -0.295,0.3023 -2.737,-5.5271 -2.891,-6.9025 -8.195,-17.33 -8.941,-17.579 -0.744,-0.2476 0.877,7.4549 2.894,13.7596 0.798,2.4939 1.39,4.5958 1.315,4.6707 -0.07,0.075 -1.106,-1.5098 -2.292,-3.5217 l -2.154,-3.6583 0.31,4.0504 c 0.611,8.0118 3.726,19.4655 7.537,27.7197 0.996,2.1581 1.703,3.9238 1.569,3.9238 -0.471,0 -4.795,-7.1095 -6.996,-11.5055 -5.529,-11.0334 -9.424,-25.6464 -9.451,-35.4502 -0.03,-9.3401 -3.421,-0.4066 -3.897,10.2492 -0.719,16.105 4.724,31.598 19.136,54.4788 5.321,8.4493 5.386,8.5786 2.989,6.0237 -4.561,-4.8596 -12.253,-15.3771 -16.223,-22.1784 -2.281,-3.907 -2.522,-3.4476 -0.756,1.4445 1.967,5.4565 5.534,12.1688 11.824,22.2528 6.752,10.8279 11.935,20.5466 14.501,27.1944 2.649,6.8654 2.203,6.7421 -1.365,-0.3774 -3.459,-6.9008 -8.786,-15.2675 -15.274,-23.9883 -13.127,-17.641 -16.914,-26.4999 -18.307,-42.8261 -0.293,-3.4172 0.317,-11.0975 1.115,-14.0498 0.179,-0.6632 0.09,-1.1392 -0.234,-1.1392 -0.761,0 -3.473,8.7407 -4.444,14.3162 -1.217,7.007 -0.757,17.378 1.037,23.378 2.419,8.0945 6.804,16.1447 15.517,28.4895 2.204,3.1245 4.01,5.8532 4.01,6.0636 0,0.6414 -8.049,-7.5322 -9.968,-10.1232 -0.99,-1.3357 -1.901,-2.3269 -2.025,-2.2027 -0.297,0.2971 5.289,11.7588 10.46,21.4659 2.263,4.2466 3.984,7.721 3.826,7.721 -0.512,0 -9.324,-12.1493 -15.24,-21.0112 -6.613,-9.9075 -10.016,-16.3231 -12.083,-22.7834 -0.802,-2.5063 -1.571,-4.8985 -1.711,-5.3162 -0.143,-0.4176 -0.479,0.3759 -0.756,1.7636 -0.346,1.7369 -0.324,3.8665 0.07,6.835 0.719,5.413 3.859,12.087 11.17,23.7403 8.749,13.9456 11.633,20.0281 14.056,29.6401 1.732,6.8691 2.204,19.4227 1.015,26.9334 -1.295,8.1769 -1.747,8.3147 -1.47,0.4491 0.554,-15.7574 -3.908,-31.0145 -13.077,-44.7253 -5.771,-8.6273 -15.073,-17.3624 -22.422,-21.0563 -3.967,-1.9932 -10.501,-3.8343 -13.611,-3.8343 -3.1,0 -2.063,1.1291 1.677,1.8233 8.314,1.5436 13.405,4.1348 18.497,9.4153 8.023,8.3189 14.468,20.5088 17.114,32.3639 1.903,8.5225 1.717,9.0878 -1.191,3.6102 -1.368,-2.5756 -4.071,-6.7917 -6.009,-9.3692 -4.828,-6.4245 -18.32,-19.4291 -18.32,-17.6591 0,0.2791 0.999,3.3135 2.218,6.7428 4.216,11.8546 7.907,18.6183 15.956,29.2347 6.438,8.4943 7.975,10.9787 9.422,15.226 2.834,8.3253 2.775,20.2114 -0.173,34.5548 -0.786,3.8289 -1.271,6.9616 -1.076,6.9616 0.194,0 2.039,-1.7657 4.1,-3.9239 z m -110.246,-3.2909 c -0.202,-0.348 -1.023,-1.5988 -1.823,-2.7793 -0.799,-1.1806 -2.063,-3.6868 -2.81,-5.5694 -1.223,-3.0852 -1.355,-4.0469 -1.334,-9.7514 0,-3.4809 0.255,-6.8892 0.542,-7.5743 0.484,-1.1574 0.565,-1.0498 1.165,1.5189 0.907,3.8827 2.469,8.4013 3.931,11.3716 1.606,3.2624 4.837,8.3436 5.308,8.3494 0.199,0 0.427,-2.9005 0.505,-6.4508 l 0.143,-6.4553 1.329,2.5314 c 0.732,1.3924 1.859,4.2403 2.505,6.3288 0.647,2.0885 1.34,3.9954 1.541,4.2376 1.196,1.4368 2.569,-11.9069 1.533,-14.8806 -0.501,-1.4384 -0.478,-1.5481 0.215,-0.9732 1.467,1.2166 4.715,7.3058 6.062,11.363 0.741,2.2277 1.424,4.1319 1.519,4.2316 0.544,0.5694 1.751,-4.0647 1.751,-6.7186 0,-4.4957 -1.133,-8.4102 -4.226,-14.6006 -1.496,-2.9935 -2.548,-5.4426 -2.337,-5.4426 0.608,0 3.52,3.5024 5.643,6.7854 2.405,3.7221 3.444,6.9733 3.877,12.1361 l 0.335,3.9859 2.118,-3.9859 c 2.968,-5.5818 4.327,-10.8409 4.121,-15.9379 -0.157,-3.8771 -0.13,-4.007 0.693,-2.9913 2.444,3.0257 4.236,11.5729 3.664,17.4624 -0.302,3.099 -0.251,3.4548 0.413,2.904 0.416,-0.3453 1.412,-2.0485 2.215,-3.7849 1.267,-2.7447 1.456,-3.7519 1.45,-7.7136 0,-5.3077 -1.006,-8.0681 -3.995,-11.0573 -1.019,-1.0192 -1.648,-1.8534 -1.395,-1.8534 1.025,0 8.159,5.0873 9.512,6.7844 0.801,1.0024 1.59,1.8226 1.756,1.8228 0.645,0 5.463,-11.0495 6.022,-13.811 0.663,-3.2864 0.192,-6.5032 -1.522,-10.3753 -1.56,-3.5262 -6.771,-8.2703 -11.849,-10.7863 -2.391,-1.1846 -4.476,-2.0239 -4.634,-1.8651 -0.159,0.1587 0.336,1.2784 1.101,2.4881 1.506,2.3821 4.252,8.1977 4.252,9.0029 0,0.2732 -2.676,-2.1735 -5.948,-5.437 -7.989,-7.968 -18.129,-15.5847 -14.121,-10.6061 2.668,3.3134 6.079,9.1527 7.269,12.4444 0.672,1.8575 1.026,3.1495 0.787,2.871 -0.24,-0.2784 -1.757,-2.2693 -3.373,-4.424 -2.885,-3.8456 -7.502,-8.471 -9.551,-9.5678 -0.891,-0.4774 -0.989,-0.4304 -0.695,0.3362 1.368,3.5651 4.323,19.1846 3.74,19.7677 -0.114,0.1077 -0.958,-1.6737 -1.893,-3.9574 -1.916,-4.6873 -8.971,-19.1157 -9.346,-19.1157 -0.536,0 -1.458,4.7454 -3.036,15.6522 l -1.655,11.4348 -0.398,-5.0585 c -0.373,-4.7441 -0.173,-11.5674 0.524,-17.978 l 0.303,-2.7847 -1.857,2.7847 c -1.946,2.9174 -5.307,9.4742 -6.266,12.2238 -0.309,0.8856 -0.657,1.5137 -0.776,1.3954 -0.455,-0.4556 1.221,-7.5672 2.656,-11.2621 0.828,-2.1318 1.333,-3.8761 1.124,-3.8761 -0.617,0 -4.323,3.1468 -5.961,5.063 -2.046,2.3937 -4.817,6.8175 -6.105,9.7463 -0.581,1.3226 -1.194,2.4049 -1.362,2.4049 -0.879,0 1.932,-8.7744 3.697,-11.5341 0.406,-0.6352 0.603,-1.2895 0.439,-1.4538 -0.608,-0.6078 -12.93,5.8133 -15.238,7.9404 -1.276,1.1763 -2.319,1.9388 -2.318,1.6945 0,-0.6418 1.946,-3.7847 3.215,-5.1985 l 1.086,-1.2103 -3.291,0.3284 c -4.022,0.4014 -7.22,1.9206 -11.838,5.6253 -1.918,1.5375 -3.573,2.7954 -3.679,2.7954 -0.31,0 1.229,-3.4655 2.078,-4.6795 1.717,-2.45 1.411,-2.5445 -7.445,-2.3039 -9.068,0.2465 -10.496,0.609 -13.787,3.4983 -2.755,2.4188 -3.783,4.9911 -3.796,9.4987 v 3.7351 l 2.314,-2.1329 c 4.791,-4.4163 12.639,-6.7224 16.926,-4.9733 l 1.764,0.7196 -2.356,0.5933 c -3.006,0.7567 -7.562,4.8052 -8.751,7.7747 -1.096,2.7408 -1.098,6.2898 0,9.6378 1.252,3.8331 1.249,3.8322 2.707,0.866 1.417,-2.8827 3.7,-4.9977 6.77,-6.2717 l 1.901,-0.7891 -1.761,2.3068 c -3.068,4.02 -3.598,9.3702 -1.362,13.7532 1.945,3.8131 2.453,3.6784 2.717,-0.721 0.244,-4.0875 1.575,-7.5668 3.924,-10.2649 l 1.098,-1.261 -0.411,2.0252 c -0.862,4.2553 -0.459,7.454 1.441,11.43 0.989,2.0674 2.229,4.2831 2.757,4.9238 0.952,1.1559 0.959,1.1124 0.959,-5.5692 0,-5.96 0.129,-7.0253 1.167,-9.2658 1.297,-2.8185 2.926,-4.733 5.87,-6.9001 2.866,-2.1097 3.213,-1.7851 0.901,0.8417 -3.251,3.6927 -4.283,6.3676 -4.542,11.774 -0.178,3.6871 -0.03,5.2182 0.671,7.0882 0.971,2.5741 3.575,6.6888 4.234,6.6888 0.224,0 0.198,-1.3101 -0.06,-2.9113 -0.879,-5.5521 1.171,-14.0934 4.343,-18.1001 0.747,-0.9445 0.78,-0.8054 0.498,2.0662 -0.432,4.3898 0.945,10.6171 3.589,16.2168 2.375,5.0308 3.743,6.653 3.113,3.6931 -0.957,-4.5001 -1.224,-8.0096 -0.84,-11.0562 0.451,-3.5641 1.524,-7.6299 2.015,-7.6273 0.165,8e-4 0.349,1.5386 0.408,3.4174 0.293,9.2108 4.544,16.8382 12.289,22.0513 2.885,1.9422 3.872,2.3188 3.241,1.2368 z m -52.438,-62.6301 c -0.645,-0.4044 -2.647,-2.182 -4.448,-3.9501 -2.943,-2.8893 -3.386,-3.1555 -4.369,-2.6293 -1.327,0.71 -7.798,6.4985 -7.798,6.9753 0,0.1867 4.002,0.3394 8.893,0.3394 7.977,0 8.774,-0.076 7.722,-0.7353 z m 137.584,-22.9211 c -1.846,-2.6482 -6.079,-6.4472 -8.782,-7.8805 -4.811,-2.5529 -12.008,-4.1752 -12.008,-2.7072 0,0.4361 1.399,1.0447 3.797,1.6523 6.172,1.5631 10.839,4.0593 14.371,7.6869 2.961,3.0413 4.325,3.6909 2.622,1.2485 z m 4.502,-16.1527 c -4.814,-5.0266 -13.729,-9.2875 -20.176,-9.6432 -4.548,-0.2511 -4.166,0.8295 0.563,1.5907 6.764,1.0887 14.072,4.4056 18.877,8.5667 2.589,2.2419 3.06,1.9127 0.736,-0.5142 z m -80.362,-4.6448 c 0.292,-0.6411 1.04,-3.5459 1.663,-6.4553 1.907,-8.9032 2.087,-9.4896 2.553,-8.3276 0.224,0.557 0.423,4.1454 0.442,7.9743 0.03,6.7651 0.07,6.9614 1.12,6.9614 1.36,0 5.238,-1.9112 6.334,-3.1225 0.765,-0.8452 0.758,-1.0913 -0.1,-3.3251 -1.223,-3.1876 -1.17,-6.4717 0.146,-9.0208 2.556,-4.9492 9.112,-10.3374 12.591,-10.3479 3.36,-0.014 5.062,2.8454 3.752,6.2909 -0.635,1.6706 -0.269,1.6436 1.267,-0.093 1.092,-1.2354 3.278,-6.0259 3.278,-7.1842 0,-0.7436 -3.056,-1.5494 -5.874,-1.5494 -1.783,0 -4.861,0.7119 -9.164,2.1201 -6.259,2.0476 -6.705,2.1204 -13.063,2.1221 -5.954,0 -7.266,-0.1763 -13.77,-1.867 -7.624,-1.9821 -12.017,-2.3382 -16.114,-1.3065 -1.229,0.3095 -2.483,0.8617 -2.786,1.2272 -0.843,1.0159 0.298,4.5414 2.091,6.4575 l 1.521,1.6256 -0.307,-2.049 c -0.244,-1.6325 -0.09,-2.329 0.778,-3.4276 1.336,-1.6999 3.533,-2.8773 5.366,-2.8773 5.287,0 14.362,9.3792 14.362,14.8433 0,1.0617 -0.722,3.1752 -1.773,5.1906 -1.505,2.8878 -2.152,4.7676 -1.644,4.777 0.07,0 1.492,0.5656 3.163,1.2537 3.718,1.5318 3.52,1.5266 4.166,0.1105 z m 81.104,-5.7162 c -1.583,-1.691 -8.564,-5.0214 -12.008,-5.7302 -1.477,-0.3035 -5.065,-0.5518 -7.975,-0.5518 -4.366,0 -5.29,0.132 -5.29,0.7593 0,0.5867 0.661,0.7604 2.91,0.7634 7.971,0.014 15.615,1.7963 20.539,4.7988 1.444,0.8802 2.72,1.5259 2.837,1.4347 0.115,-0.092 -0.338,-0.7546 -1.013,-1.4742 z m -321.968,-30.8374 c 3.97,-10.1075 13.054,-24.9189 22.478,-36.6501 5.881,-7.3231 18.536,-20.2782 25.751,-26.3614 2.715,-2.2896 4.935,-4.5124 4.935,-4.9398 0,-1.6125 3.57,-11.3517 5.738,-15.6608 2.795,-5.5499 7.248,-12.3434 11.52,-17.5739 1.786,-2.1873 3.673,-4.4984 4.193,-5.1356 0.904,-1.1092 0.908,-1.2693 0.09,-3.7434 -0.472,-1.4222 -0.962,-2.5861 -1.088,-2.5861 -0.129,0 -3.125,1.6203 -6.664,3.6022 -11.139,6.2354 -22.579,14.5289 -30.761,22.2996 -2.08,1.9757 -3.78,3.4279 -3.78,3.2271 0,-0.7511 7.247,-12.1863 10.237,-16.1507 3.146,-4.1732 14.759,-16.1442 19.363,-19.9604 1.382,-1.1452 2.374,-2.2216 2.203,-2.3924 -0.484,-0.4836 -7.325,3.1215 -11.806,6.2186 -12.902,8.921 -24.244,21.2525 -33.95,36.9131 -1.929,3.1117 -3.6,5.5654 -3.712,5.4528 -0.114,-0.1134 1.285,-3.2283 3.105,-6.9234 8.411,-17.0684 23.453,-35.3205 39.494,-47.9213 1.88,-1.4768 3.417,-2.8804 3.417,-3.1186 0,-1.4381 -14.585,6.9003 -21.869,12.5017 -5.221,4.0157 -14.074,12.9169 -17.906,18.0036 -2.071,2.7495 -3.766,4.8691 -3.766,4.7099 0,-0.6544 3.322,-6.7993 6.352,-11.7479 5.791,-9.4558 11.583,-16.6359 21.282,-26.375 5.07,-5.092 8.73,-9.1047 8.133,-8.9196 -1.527,0.475 -14.413,7.0209 -16.401,8.3312 -0.906,0.597 -1.646,0.9314 -1.646,0.7434 0,-0.8396 4.941,-6.6291 9.228,-10.814 6.035,-5.8914 9.746,-8.8421 17.859,-14.2068 5.814,-3.8434 6.417,-4.3701 5.164,-4.5165 -2.147,-0.2497 -14.986,2.7742 -21.591,5.0848 -13.272,4.6428 -23.069,10.7093 -32.466,20.1039 -13.795,13.7906 -21.684,30.2103 -24.467,50.9164 -1.032,7.689 -1.428,13.7338 -0.86,13.1407 0.254,-0.2658 1.202,-2.9895 2.103,-6.0526 4.351,-14.7752 12.381,-30.4879 21.09,-41.2704 3.573,-4.4232 12.938,-13.9857 15.406,-15.7309 l 1.699,-1.2012 -1.926,2.2675 c -5.383,6.3378 -7.599,9.244 -10.219,13.406 -5.56,8.8335 -9.099,17.6319 -10.944,27.207 -1.019,5.2939 -1.067,6.4819 -0.67,16.5877 0.586,14.968 0.437,19.7615 -0.772,24.5555 -1.375,5.4579 -5.774,14.1912 -9.946,19.7456 -6.141,8.1777 -6.017,8.1942 1.901,0.2531 4.304,-4.3162 10.637,-11.2651 14.076,-15.442 8.456,-10.2735 20.111,-21.8544 27.361,-27.1862 3.202,-2.3551 6.149,-4.4747 6.548,-4.7102 0.398,-0.2355 -2.581,2.8577 -6.621,6.8739 -4.04,4.0162 -8.707,9.0109 -10.369,11.0993 -16.144,20.2837 -25.327,41.5003 -28.815,66.578 -0.477,3.422 0.285,2.5811 2.293,-2.5314 z m 409.792,-42.948 c -5.184,-5.4856 -7.826,-9.6548 -9.517,-15.0231 -2.691,-8.5408 -2.17,-14.324 2.489,-27.6171 1.51,-4.3099 3.096,-9.5323 3.525,-11.6057 1.586,-7.6809 0.634,-17.3789 -2.264,-23.0594 -1.581,-3.0999 -0.908,-2.9866 1.207,0.201 3,4.5193 5.385,10.9719 6.397,17.3119 0.728,4.5526 2.526,25.5811 2.526,29.5337 0,1.9916 0.182,3.0975 0.461,2.806 0.525,-0.5473 3.282,-14.1711 4.076,-20.1366 1.199,-9.0274 0.433,-19.0354 -2.048,-26.7394 -3.936,-12.2205 -13.906,-25.5073 -25.272,-33.6778 -4.833,-3.4745 -16.505,-10.3016 -17.611,-10.3016 -0.398,0 1.585,2.4197 4.408,5.3747 7.89,8.2623 12.664,14.9416 17.083,23.8927 2.106,4.2625 3.719,7.8576 3.585,7.9896 -0.129,0.1292 -1.858,-1.7595 -3.837,-4.205 -4.446,-5.4967 -14.818,-14.9416 -15.576,-14.1838 -0.144,0.1435 0.768,1.8399 2.019,3.7759 5.319,8.2221 11.351,21.1301 13.45,28.7824 1.437,5.2382 2.559,12.8204 2.503,16.924 l -0.04,3.291 -0.983,-3.291 c -2.214,-7.4088 -5.987,-15.1742 -10.455,-21.518 -2.489,-3.5334 -9.514,-11.391 -10.184,-11.391 -0.194,0 0.26,2.4485 1.01,5.4422 0.75,2.9938 1.721,7.6079 2.16,10.2529 0.85,5.1306 1.685,17.7202 1.176,17.7202 -0.168,0 -0.78,-1.5914 -1.359,-3.5367 -1.283,-4.3071 -5.181,-12.1803 -8.393,-16.9534 -2.4,-3.565 -6.791,-8.8564 -7.36,-8.8679 -0.828,-0.014 -5.007,12.5563 -5.007,15.0633 0,0.5506 1.507,2.5682 3.348,4.4836 1.841,1.9154 4.776,5.3051 6.523,7.5328 6.735,8.5924 9.029,14.8704 8.766,24.0053 -0.09,3.0355 -0.03,5.4375 0.129,5.3375 0.414,-0.257 1.526,-2.9352 4.765,-11.4735 1.553,-4.0951 3.706,-9.423 4.781,-11.84 l 1.957,-4.3945 -0.03,6.777 c -0.01,3.7274 0.263,8.4859 0.622,10.5744 2.223,12.9363 9.363,24.5938 21.463,35.0427 1.907,1.6476 3.589,2.8748 3.737,2.7273 0.148,-0.1475 -1.755,-2.4095 -4.228,-5.0266 z m -54.089,-43.5022 c -6.833,-10.9443 -7.223,-18.9479 -1.484,-30.3658 0.942,-1.8715 1.712,-3.6281 1.712,-3.9008 0,-0.2741 -1.672,0.7018 -3.714,2.1671 -2.042,1.4653 -4.849,3.1531 -6.24,3.7515 -2.45,1.0535 -9.181,2.4212 -9.643,1.959 -0.129,-0.1291 1.355,-1.1524 3.29,-2.2819 9.291,-5.4264 16.216,-13.7791 20.373,-24.5759 10.59,-27.5022 -7.338,-54.3342 -38.27,-57.2777 -10.343,-0.9831 -24.717,3.5477 -34.685,10.936 -3.439,2.5489 -8.874,7.9451 -8.439,8.38 0.143,0.1291 2.177,-0.5511 4.535,-1.5271 8.222,-3.4042 21.533,-6.4195 27.986,-6.3406 2.43,0.029 2.298,0.1005 -3.291,1.7653 -7.599,2.2647 -22.252,9.3416 -19.342,9.3416 0.292,0 2.509,-0.4708 4.93,-1.0449 6.925,-1.6447 14.535,-2.4785 22.723,-2.4885 4.154,0 7.439,0.1004 7.299,0.2425 -0.143,0.1435 -2.626,0.6846 -5.526,1.2113 -2.901,0.5267 -6.756,1.4509 -8.566,2.0552 -3.862,1.2887 -12.656,5.4507 -12.656,5.9889 0,0.2038 3.474,0.1005 7.719,-0.2239 4.247,-0.3272 10.205,-0.6142 13.24,-0.6372 l 5.517,-0.043 -1.72,1.2414 c -5.427,3.9123 -9.348,6.3148 -12.067,7.3954 -1.689,0.6703 -3.071,1.3864 -3.071,1.5902 0,0.9013 2.351,1.5256 4.766,1.2658 2.068,-0.2239 9.514,-2.1671 16.242,-4.2395 1.837,-0.5654 -0.155,1.2644 -4.795,4.4031 -7.285,4.9284 -9.124,7.3295 -9.124,11.9091 0,1.9045 0.272,2.6063 1.479,3.8147 1.404,1.4022 1.705,1.4797 5.768,1.4797 4.812,0 4.456,0.3214 5.18,-4.6902 0.462,-3.2019 1.706,-4.6514 5.074,-5.9115 5.14,-1.9231 6.707,-3.0038 9.589,-6.6161 3.5,-4.3873 4.677,-5.1767 8.144,-5.4637 1.506,-0.1292 2.739,-0.4076 2.739,-0.6286 0,-0.2196 -1.052,-1.3261 -2.337,-2.4556 -2.196,-1.9332 -3.331,-2.3709 -7.031,-2.7139 l -1.518,-0.1435 1.62,-0.8784 c 4.32,-2.3436 9.477,-0.3157 12.572,4.9428 3.119,5.2986 3.097,16.1198 -0.04,23.9817 -0.46,1.151 -0.983,2.0925 -1.161,2.0925 -0.179,0 -0.337,-2.3838 -0.35,-5.2987 -0.01,-2.9148 -0.185,-5.4594 -0.38,-5.6545 -0.504,-0.5023 -2.638,0.7348 -5.286,3.0655 l -2.266,1.9949 0.326,2.8919 0.327,2.8918 -4.828,4.7591 c -3.677,3.6223 -4.829,5.0762 -4.829,6.0937 0,1.7624 1.99,3.2894 4.845,3.7171 1.234,0.1851 2.243,0.5497 2.243,0.8109 0,0.2597 -0.969,0.9127 -2.151,1.4495 -4.224,1.9174 -12.35,0.9027 -19.793,-2.4714 -1.854,-0.841 -3.371,-1.3548 -3.371,-1.1424 0,0.2124 0.538,1.9634 1.195,3.8922 2.755,8.0815 9.338,19.0736 14.991,25.0251 2.427,2.5554 3.054,3.0067 2.814,2.0232 -0.171,-0.6961 -0.524,-2.6327 -0.785,-4.3035 -0.957,-6.1298 -0.308,-7.8586 1.178,-3.1419 1.747,5.5416 7.166,15.5462 8.421,15.5462 0.232,0 -0.115,-1.3285 -0.771,-2.9521 -0.656,-1.6236 -1.335,-4.3007 -1.507,-5.949 l -0.316,-2.9969 1.844,2.9767 c 2.806,4.53 4.201,6.1969 7.482,8.9388 3.843,3.2112 5.063,3.3493 3.199,0.3623 z m -270.785,-4.3037 c 0.815,-0.7656 2.454,-3.0616 3.642,-5.102 1.188,-2.0404 2.269,-3.6029 2.4,-3.472 0.129,0.1306 -0.101,1.5726 -0.518,3.2036 l -0.757,2.9655 2.404,-2.6489 c 2.7,-2.9761 6.586,-10.037 7.955,-14.4539 0.695,-2.2417 1.015,-2.7369 1.362,-2.1154 0.516,0.9214 -0.257,6.0818 -1.393,9.3028 -0.402,1.1373 -0.541,2.0679 -0.31,2.0679 0.591,0 4.086,-3.874 5.937,-6.5818 1.968,-2.8773 7.268,-12.7958 7.268,-13.5995 0,-0.4104 -0.524,-0.3243 -1.645,0.2713 -1.148,0.6099 -2.872,0.8812 -5.696,0.8998 -3.665,0.029 -4.413,-0.1535 -7.866,-1.8413 -2.098,-1.0261 -4.263,-2.3695 -4.809,-2.9851 -0.687,-0.7722 -0.76,-1.0276 -0.236,-0.8224 8.802,3.4401 16.149,1.9791 21.15,-4.2094 1.316,-1.6274 2.789,-3.6324 3.274,-4.4547 l 0.88,-1.4955 -2.653,-0.3329 c -2.649,-0.3316 -2.656,-0.3373 -5.671,-4.627 -4.009,-5.702 -4.901,-6.5114 -6.7,-6.0679 -0.78,0.1923 -2.181,1.0749 -3.113,1.9604 l -1.695,1.6103 0.82,-1.9863 c 0.449,-1.0922 1.069,-2.2891 1.376,-2.658 0.416,-0.5023 0.382,-0.6702 -0.143,-0.6644 -3.829,0.043 -3.961,8.0728 -0.183,11.0465 2.394,1.8829 4.727,2.3135 8.003,1.4796 3.357,-0.8553 4.402,-0.3272 3.081,1.5572 -1.441,2.0566 -4.675,3.3138 -8.559,3.3253 -3.061,0.014 -3.974,-0.221 -6.701,-1.682 -3.79,-2.0308 -7.982,-6.2545 -7.476,-7.5318 1.097,-2.7742 0.913,-4.1103 -0.788,-5.6976 -1.936,-1.8098 -5.483,-3.743 -5.968,-3.2536 -0.183,0.1837 -0.293,2.7068 -0.247,5.6072 0.04,2.9005 -0.115,5.1537 -0.348,5.0074 -0.726,-0.4478 -2.427,-5.5011 -3.296,-9.798 -0.686,-3.3855 -0.731,-4.7073 -0.257,-7.77 0.653,-4.2137 2.487,-8.5967 4.479,-10.6978 3.056,-3.2248 8.01,-4.3127 11.388,-2.5015 l 1.62,0.8683 -2.797,0.3186 c -1.538,0.1751 -3.361,0.6085 -4.051,0.9644 -1.414,0.7306 -4.037,3.0641 -4.037,3.5909 0,0.1908 1.185,0.5037 2.635,0.696 2.277,0.3014 2.947,0.676 4.935,2.7555 1.266,1.3233 3.041,3.3426 3.945,4.4878 1.457,1.8471 2.229,2.2748 6.802,3.7659 6.026,1.9662 6.836,2.7627 7.694,7.582 l 0.572,3.2134 2.783,0.1564 c 1.532,0.086 3,0.3703 3.264,0.6315 0.265,0.2626 0.977,0.4779 1.584,0.4779 0.837,0 1.359,-0.5985 2.176,-2.4986 2.91,-6.7626 0.07,-12.7831 -9.372,-19.8815 -2.607,-1.9604 -4.742,-3.6281 -4.742,-3.707 0,-0.086 3.588,1.3433 7.974,3.1602 9.342,3.8721 15.085,5.8182 16.543,5.6101 0.808,-0.1148 -0.07,-1.0347 -3.935,-4.0787 -2.738,-2.1614 -6.607,-4.8954 -8.599,-6.0751 -2.984,-1.771 -3.412,-2.1772 -2.436,-2.3164 1.537,-0.2181 13.888,1.7595 18.745,3.0024 3.216,0.8223 4.875,0.9386 4.07,0.2856 -4,-3.2435 -13.208,-7.6825 -20.118,-9.6989 -5.907,-1.7251 -5.912,-1.7265 -3.13,-1.7452 6.622,-0.043 22.562,2.3752 28.481,4.3242 5.778,1.9016 3.258,-0.3918 -5.157,-4.6973 -5.298,-2.7111 -10.969,-4.9155 -16.671,-6.4813 -2.407,-0.6602 -3.804,-1.2184 -3.105,-1.2385 2.114,-0.057 13.684,1.3935 17.557,2.2073 4.352,0.9156 14.025,3.9941 17.831,5.6746 1.505,0.6645 2.857,1.0865 3.007,0.9372 0.46,-0.4607 -4.027,-4.7863 -8.248,-7.9494 -2.213,-1.6591 -6.542,-4.2496 -9.62,-5.7565 -18.762,-9.1908 -39.175,-7.1888 -53.516,5.247 -10.394,9.0129 -15.305,19.3892 -15.269,32.2584 0.04,16.4973 7.278,29.4483 20.574,36.8423 2.389,1.3275 4.48,2.6378 4.649,2.912 0.396,0.6415 -2.593,0.6357 -6.84,-0.014 -2.107,-0.3215 -4.895,-1.306 -7.749,-2.734 -2.449,-1.2271 -4.384,-2.081 -4.298,-1.8987 0.09,0.1837 1.122,2.2058 2.302,4.4935 4.146,8.0441 5.682,16.4208 3.922,21.4072 -1.247,3.5351 -0.831,3.9559 1.628,1.6454 z m 240.407,-40.5043 c 0.651,-3.0425 1.834,-5.59 3.209,-6.906 1.194,-1.1453 1.495,-1.2472 1.747,-0.5927 0.459,1.1969 1.506,0.9558 3.11,-0.7176 0.912,-0.953 1.445,-2.0509 1.445,-2.9823 0,-1.9547 -1.137,-4.6227 -1.971,-4.6227 -1.842,0 -3.298,1.128 -4.381,3.3985 -0.637,1.3333 -1.672,2.6493 -2.298,2.9234 -0.627,0.2756 -1.14,0.7578 -1.14,1.0721 0,1.4998 -2.147,3.1933 -4.802,3.7874 -1.517,0.3387 -2.626,0.8296 -2.465,1.0893 0.423,0.686 6.287,4.9442 6.807,4.9442 0.242,0 0.575,-0.6272 0.739,-1.3936 z m 11.366,-12.3396 c 0,-1.6059 -0.786,-3.4831 -1.72,-4.106 -1.121,-0.7477 -1.187,-0.3473 -0.25,1.4911 0.527,1.0334 0.957,2.5274 0.957,3.321 0,0.8324 0.216,1.3089 0.507,1.1281 0.278,-0.1722 0.506,-0.9975 0.506,-1.8342 z m -105.582,-22.7188 c 3.163,-8.8708 9.277,-19.6145 14.548,-25.5604 0.241,-0.2741 -0.825,1.9246 -2.372,4.8868 -3.275,6.2717 -5.646,12.7802 -6.07,16.6652 -0.346,3.1703 -0.281,3.1115 3.056,-2.8086 3.196,-5.669 7.154,-10.7036 13.877,-17.6469 6.857,-7.0826 9.043,-8.601 4.657,-3.232 -1.718,2.1011 -4.302,5.7177 -5.742,8.0355 -2.856,4.594 -8.152,15.4396 -7.904,16.1844 0.274,0.8224 11.194,-6.9763 15.797,-11.2818 2.457,-2.2992 6.775,-6.8114 9.597,-10.0276 2.82,-3.2162 6.952,-7.7585 9.179,-10.0936 4.009,-4.2007 4.027,-4.2337 1.833,-3.12 -2.323,1.1797 -12.205,7.658 -15.249,9.9988 -3.034,2.3322 3.41,-4.1792 7.341,-7.4184 1.949,-1.606 5.481,-4.1749 7.848,-5.7077 6.167,-3.9955 25.563,-13.7762 30.262,-15.2616 11.751,-3.7114 24.293,-3.819 36.792,-0.3157 1.933,0.5425 3.611,0.8883 3.729,0.7706 0.243,-0.2439 -5.357,-3.9194 -9.521,-6.2487 -1.532,-0.8568 -4.922,-2.2704 -7.534,-3.143 -3.965,-1.3261 -5.516,-1.5859 -9.412,-1.5773 -5.835,0.014 -9.608,0.8798 -18.107,4.1663 -7.045,2.724 -8.943,3.1215 -18.93,3.9769 -9.432,0.808 -15.929,3.166 -24.576,8.9182 -2.691,1.7911 -6.791,5.0216 -9.113,7.1816 -4.576,4.2552 -4.507,4.0385 0.732,-2.2863 3.602,-4.3485 7.463,-7.8274 12.408,-11.18 7.033,-4.769 13.105,-6.8845 22.732,-7.9192 8.106,-0.8726 12.014,-1.7423 10.497,-2.3365 -0.536,-0.2095 -1.665,-0.3976 -2.512,-0.4162 -4.15,-0.1005 -12.001,-3.2507 -18.931,-7.6079 -3.067,-1.9288 -3.479,-2.048 -7.089,-2.0408 -5.356,0.014 -9.575,1.1195 -15.611,4.1017 -6.416,3.1703 -12.205,8.3126 -14.764,13.1132 -0.91,1.7064 -1.778,2.9766 -1.93,2.8244 -0.471,-0.4707 1.917,-6.4525 4.025,-10.0835 6.439,-11.0881 25.356,-23.8195 30.399,-20.4584 0.626,0.4177 2.83,2.2561 4.899,4.0845 6.968,6.1627 14.632,8.9699 24.845,9.1019 5.188,0.072 6.264,-0.086 9.872,-1.3433 2.228,-0.7793 4.719,-1.8385 5.534,-2.3523 l 1.484,-0.9357 h -5.786 c -13.746,0.014 -24.754,-3.8204 -34.785,-12.0999 -1.872,-1.5457 -4.341,-3.2321 -5.485,-3.7458 -1.939,-0.8698 -2.279,-0.8812 -5.063,-0.1565 -8.806,2.2934 -21.456,11.6407 -28.622,21.1502 -7.276,9.6572 -12.39,24.441 -14.913,43.1154 -0.945,6.9979 -1.554,23.2757 -0.885,23.689 0.277,0.1708 0.973,-2.1097 1.619,-5.2987 2.038,-10.0577 7.652,-22.8293 13.889,-31.5982 3.827,-5.3776 11.919,-13.6499 17.254,-17.6325 3.582,-2.6752 13.364,-8.3972 14.355,-8.3972 0.216,0 -1.492,1.2328 -3.795,2.7397 -13.636,8.9196 -23.246,20.6292 -30.958,37.7236 -3.058,6.7783 -6.098,16.0954 -7.8,23.9128 -2.287,10.4926 -2.153,12.1473 0.399,4.9872 z m -10.626,-1.9001 c -0.53,-4.5309 -2.632,-13.9657 -4.066,-18.2368 -1.793,-5.3403 -5.899,-13.1619 -9.332,-17.7746 -11.612,-15.6061 -35.349,-28.8326 -61.521,-34.2791 -4.624,-0.9616 -5.165,-1.1639 -3.191,-1.1912 1.309,-0.014 5.069,0.3129 8.355,0.7348 21.216,2.7297 37.093,8.9196 50.074,19.527 5.79,4.7289 10.191,10.2744 14.234,17.931 l 2.14,4.0501 v -3.0383 c 0.03,-5.0518 -0.995,-14.1924 -1.968,-17.7028 -0.505,-1.8198 -0.822,-3.3081 -0.706,-3.3081 0.115,0 0.873,1.4237 1.681,3.1646 1.937,4.1734 3.911,11.1398 4.291,15.1396 0.52,5.4895 0.835,7.6193 1.089,7.3653 0.517,-0.5167 1.674,-12.4903 1.69,-17.4632 0.01,-7.107 -1.047,-12.0239 -3.867,-17.7976 -4.334,-8.8751 -13.152,-16.1729 -25.737,-21.2994 -15.616,-6.3621 -38.355,-10.0232 -53.822,-8.6655 -17.15,1.504 -32.966,6.4913 -47.233,14.8913 -4.707,2.7728 -11.089,7.1974 -11.089,7.6897 0,0.3344 1.989,-0.4535 5.001,-1.9806 5.628,-2.8516 14.956,-6.1655 21.983,-7.8116 8.668,-2.0293 11.659,-2.3451 22.126,-2.335 9.587,0.014 10.844,0.1148 16.456,1.4366 7.345,1.7251 17.298,4.9197 20.758,6.6635 1.392,0.7018 2.075,1.1424 1.518,0.9788 -4.737,-1.395 -11.515,-2.8029 -15.85,-3.2952 -7.745,-0.8769 -21.603,-0.3832 -26.526,0.9458 -9.719,2.6264 -16.278,6.3406 -25.214,14.2843 -7.178,6.3779 -12.119,9.9787 -17.511,12.7572 -6.758,3.4832 -16.167,6.5602 -23.692,7.7485 -3.944,0.6229 -0.895,1.2859 7.334,1.5959 9.696,0.3646 14.756,-0.2066 21.388,-2.4125 7.126,-2.3695 10.964,-4.8982 17.301,-11.4024 6.338,-6.5028 9.481,-8.3398 16.033,-9.366 10.705,-1.6777 27.769,1.8729 43.79,9.1119 4.994,2.2576 10.71,5.3547 8.011,4.34 -0.557,-0.2095 -3.382,-1.2716 -6.275,-2.3609 -15.297,-5.7607 -34.982,-8.7301 -45.093,-6.8056 -6.032,1.1496 -8.607,2.602 -14.957,8.4446 -10.906,10.0304 -24.417,17.4704 -41.264,22.7245 l -3.291,1.0262 7.847,-0.1909 c 10.833,-0.2641 15.105,-1.2586 34.683,-8.0772 4.454,-1.5514 10.264,-3.1918 12.91,-3.6467 9.376,-1.6103 22.441,-0.2426 32.889,3.4458 8.835,3.1187 22.176,10.5514 30.107,16.7743 3.532,2.7713 3.398,3.0325 -0.332,0.6502 -6.142,-3.9224 -15.733,-8.0672 -25.398,-10.9734 -3.803,-1.1452 -7.179,-1.9934 -7.5,-1.8858 -0.323,0.1005 0.993,1.0692 2.923,2.137 1.931,1.0677 8.409,4.8394 14.397,8.3828 11.744,6.9491 27.899,15.8716 29.745,16.427 1.455,0.4363 1.444,0.3488 -0.436,-3.4114 -6.136,-12.2765 -17.169,-23.3 -33.233,-33.2042 -2.855,-1.7595 -5.19,-3.3052 -5.19,-3.4343 0,-0.5727 9.554,4.9858 16.709,9.7218 14.45,9.5683 26.849,20.9737 32.987,30.3482 1.727,2.6393 3.229,4.7088 3.337,4.6012 0.66,-0.6602 -2.85,-10.4122 -5.576,-15.487 -5.616,-10.4509 -12.641,-17.7789 -24.818,-25.8876 -7.627,-5.0777 -6.751,-5.0016 2.095,0.1808 19.547,11.4527 32.744,25.7929 38.213,41.5296 0.626,1.7968 0.91,0.8037 0.58,-2.025 z m -15.176,-62.5994 c -2.784,-2.8445 -6.754,-6.2818 -8.82,-7.6409 -11.386,-7.4801 -25.348,-12.928 -41.049,-16.0136 l -4.811,-0.9444 6.329,0.2225 c 6.657,0.2354 12.756,1.128 19.481,2.8488 11.096,2.8402 21.696,9.498 28.296,17.7718 2.553,3.199 6.389,9.142 5.794,8.9727 -0.09,-0.029 -2.436,-2.3724 -5.22,-5.2169 z m -156.122,60.7781 c 5.416,-1.6174 9.716,-3.4946 12.005,-5.2427 l 1.749,-1.3332 -1.146,-0.9286 c -0.937,-0.7592 -2.03,-0.9242 -6.027,-0.9084 -2.683,0.014 -6.474,0.3286 -8.423,0.7089 -1.95,0.3789 -3.613,0.6243 -3.698,0.544 -0.299,-0.2813 6.916,-4.838 9.594,-6.0622 3.928,-1.794 7.675,-2.6536 14.447,-3.3138 6.067,-0.5913 8.259,-1.2127 8.665,-2.4556 0.185,-0.5698 -1.471,-0.6487 -9.583,-0.4564 -8.467,0.2009 -10.252,0.3875 -13.08,1.3692 -4.298,1.4911 -8.131,3.4516 -13.279,6.7926 -5.503,3.5693 -7.67,4.6342 -11.397,5.6001 -3.813,0.9888 -10.653,1.0218 -14.228,0.072 -3.69,-0.9816 -3.219,-0.057 1.182,2.325 7.083,3.8334 12.44,4.993 22.01,4.7619 5.551,-0.1291 7.657,-0.4104 11.209,-1.471 z m 342.311,-0.057 c 1.879,-0.3975 4.84,-1.4064 6.582,-2.2417 3.16,-1.5141 7.69,-4.561 7.324,-4.9255 -0.101,-0.1005 -1.976,0.2626 -4.155,0.8195 -5.973,1.5284 -15.534,1.4208 -22.439,-0.2526 -5.977,-1.4481 -7.611,-1.55 -8.967,-0.5583 -0.928,0.6788 -0.901,0.7678 0.69,2.2546 3.139,2.9321 10.305,5.5154 15.525,5.5972 1.113,0.014 3.562,-0.2942 5.44,-0.6932 z m -15.313,-18.5955 2.278,-1.0434 -3.544,-0.6774 c -2.5,-0.4765 -5.933,-1.8628 -11.645,-4.7016 -4.456,-2.213 -10.265,-4.8236 -12.91,-5.7995 -5.008,-1.8471 -14.382,-3.8994 -17.62,-3.8563 -1.758,0.029 -1.595,0.1564 2.684,2.1929 2.505,1.1926 7.29,3.885 10.631,5.9818 7.028,4.4103 9.32,5.623 13.854,7.3294 6.275,2.3623 11.934,2.5618 16.272,0.5741 z m -292.886,-37.4064 c 5.939,-3.4659 18.724,-12.8534 17.762,-13.0414 -1.137,-0.2224 -7.466,2.8044 -12.007,5.7422 -4.998,3.2334 -11.346,9.363 -9.696,9.363 0.223,0 1.997,-0.9285 3.941,-2.0638 z m 149.069,-15.4438 c 2.744,-7.3323 -0.293,-12.8592 -8.326,-15.1526 -2.504,-0.7162 -15.36,-2.0193 -15.778,-1.6002 -0.115,0.1148 0.933,1.0606 2.338,2.0925 1.405,1.0319 2.555,2.0594 2.555,2.2848 0,0.2238 1.055,1.5815 2.345,3.0153 2.348,2.612 4.843,4.3213 5.439,3.7271 0.92,-0.9214 -0.324,-4.3758 -2.388,-6.6319 -0.776,-0.8497 -0.847,-1.0822 -0.254,-0.8554 0.722,0.277 3.182,3.0368 4.133,4.6356 0.193,0.3229 0.808,2.8302 1.369,5.5685 1.702,8.3053 1.78,8.3412 3.706,1.6906 1.161,-4.0041 1.277,-4.1979 1.676,-2.7842 0.236,0.8353 0.399,3.2191 0.362,5.2958 -0.06,3.7314 -0.06,3.7644 0.858,2.6378 0.508,-0.6272 1.392,-2.3924 1.965,-3.9237 z"
       id="path73" /></g></svg>
